{
	"asset":{
		"generator":"Khronos glTF Blender I/O v5.1.18",
		"version":"2.0"
	},
	"extensionsUsed":[
		"KHR_materials_specular"
	],
	"scene":0,
	"scenes":[
		{
			"name":"Scene",
			"nodes":[
				9,
				20,
				30,
				33
			]
		}
	],
	"nodes":[
		{
			"name":"TorsoDrone.001",
			"translation":[
				0.8252955675125122,
				1.844316005706787,
				-1.7352596521377563
			]
		},
		{
			"name":"TorsoDrone.002",
			"translation":[
				-0.825295090675354,
				1.844316005706787,
				-1.7352598905563354
			]
		},
		{
			"name":"BackUnit.L",
			"rotation":[
				0,
				1,
				0,
				7.549790126404332e-08
			],
			"translation":[
				1.8299329280853271,
				1.6154398918151855,
				-2.0089237689971924
			]
		},
		{
			"name":"BackUnit.R",
			"rotation":[
				0,
				1,
				0,
				7.549790126404332e-08
			],
			"translation":[
				-1.8299322128295898,
				1.6154398918151855,
				-2.0089242458343506
			]
		},
		{
			"name":"ArmJoint.L",
			"rotation":[
				0,
				1,
				0,
				7.549790126404332e-08
			],
			"translation":[
				1.6299717426300049,
				1.517547845840454,
				-0.3265281915664673
			]
		},
		{
			"name":"ArmJoint.R",
			"rotation":[
				0,
				1,
				0,
				7.549790126404332e-08
			],
			"translation":[
				-1.6299717426300049,
				1.517547845840454,
				-0.3265286684036255
			]
		},
		{
			"name":"Head",
			"rotation":[
				0,
				1,
				0,
				7.549790126404332e-08
			],
			"translation":[
				1.3943336263366746e-08,
				1.6682711839675903,
				-0.09234254062175751
			]
		},
		{
			"children":[
				0,
				1,
				2,
				3,
				4,
				5,
				6
			],
			"name":"Torso",
			"rotation":[
				0,
				-1,
				0,
				7.549790126404332e-08
			]
		},
		{
			"mesh":0,
			"name":"TorsoDroneTest",
			"skin":0
		},
		{
			"children":[
				8,
				7
			],
			"name":"TORSO"
		},
		{
			"name":"Feet.L",
			"rotation":[
				0.7485270500183105,
				-0.0014159914571791887,
				-0.0015987136866897345,
				0.6631008386611938
			],
			"scale":[
				1,
				1,
				1.0000001192092896
			],
			"translation":[
				1.7706440758047393e-09,
				3.882260799407959,
				-9.19681042432785e-08
			]
		},
		{
			"children":[
				10
			],
			"name":"Shin.L",
			"rotation":[
				-0.07165833562612534,
				0.00538990180939436,
				-0.11054117977619171,
				0.9912702441215515
			],
			"scale":[
				0.9999999403953552,
				0.9999998211860657,
				0.9999999403953552
			],
			"translation":[
				-4.135080899914101e-08,
				2.1330161094665527,
				-6.05359673500061e-09
			]
		},
		{
			"children":[
				11
			],
			"name":"Thigh.L",
			"rotation":[
				0.0013221695553511381,
				-0.011646505445241928,
				-0.9935501217842102,
				0.11278669536113739
			],
			"scale":[
				0.9999964237213135,
				0.9999999403953552,
				1
			],
			"translation":[
				0.40090784430503845,
				0,
				6.05353989158175e-08
			]
		},
		{
			"name":"Feet.R",
			"rotation":[
				0.7485269904136658,
				0.0014160136925056577,
				0.0015987266087904572,
				0.6631008982658386
			],
			"translation":[
				3.659377512121864e-08,
				3.882261276245117,
				3.527384251356125e-08
			]
		},
		{
			"children":[
				13
			],
			"name":"Shin.R",
			"rotation":[
				-0.07165835052728653,
				-0.005389944184571505,
				0.11054115742444992,
				0.9912702441215515
			],
			"scale":[
				1,
				0.9999998807907104,
				1
			],
			"translation":[
				-2.181613290019868e-08,
				2.1330161094665527,
				4.656612873077393e-10
			]
		},
		{
			"children":[
				14
			],
			"name":"Thigh.R",
			"rotation":[
				0.0013219896936789155,
				0.011646493338048458,
				0.9935501217842102,
				0.11278669536113739
			],
			"scale":[
				0.9999962449073792,
				0.9999999403953552,
				0.9999999403953552
			],
			"translation":[
				-0.40090784430503845,
				0,
				-6.05353989158175e-08
			]
		},
		{
			"name":"TorsoJoint",
			"rotation":[
				0,
				1,
				0,
				7.549790126404332e-08
			],
			"translation":[
				1.475501232306442e-08,
				0.7077298164367676,
				-0.09771803021430969
			]
		},
		{
			"children":[
				12,
				15,
				16
			],
			"name":"LegBase",
			"translation":[
				6.300035905286439e-14,
				6.636315822601318,
				-4.172325134277344e-07
			]
		},
		{
			"children":[
				17
			],
			"name":"Root",
			"rotation":[
				0,
				-1,
				0,
				7.549790126404332e-08
			]
		},
		{
			"mesh":1,
			"name":"LegsTest",
			"skin":1
		},
		{
			"children":[
				19,
				18
			],
			"name":"LEGS"
		},
		{
			"name":"Hand.L",
			"rotation":[
				0.7071068286895752,
				-5.2683555296084705e-09,
				5.268355085519261e-09,
				0.7071067094802856
			],
			"translation":[
				-0.141262024641037,
				2.007054328918457,
				-0.4223794937133789
			]
		},
		{
			"children":[
				21
			],
			"name":"Forearm.L",
			"rotation":[
				0.6958385109901428,
				-0.12081415951251984,
				-0.12050346285104752,
				0.697632908821106
			],
			"scale":[
				1,
				0.9999998807907104,
				0.9999999403953552
			],
			"translation":[
				6.002183283726481e-08,
				1.7382639646530151,
				-2.9103830456733704e-10
			]
		},
		{
			"name":"Hatch.L",
			"rotation":[
				-0.001997849205508828,
				-0.00166841980535537,
				0.8931903839111328,
				0.44967120885849
			],
			"scale":[
				1.0000001192092896,
				0.9999999403953552,
				0.9999998807907104
			],
			"translation":[
				-0.9932492971420288,
				-0.0581207238137722,
				0.0004866882227361202
			]
		},
		{
			"children":[
				22,
				23
			],
			"name":"Shoulder.L",
			"rotation":[
				-0.9853330254554749,
				0.1706373393535614,
				-0.00021969040972180665,
				0.001268819090910256
			],
			"scale":[
				1,
				1,
				0.9999999403953552
			]
		},
		{
			"name":"Hand.R",
			"rotation":[
				0.7071067690849304,
				-5.288936844038972e-09,
				5.247775103356389e-09,
				0.7071067690849304
			],
			"translation":[
				0.1412622034549713,
				2.007054090499878,
				-0.42237913608551025
			]
		},
		{
			"children":[
				25
			],
			"name":"Forearm.R",
			"rotation":[
				0.6958385109901428,
				0.12081412971019745,
				0.12050346285104752,
				0.697632908821106
			],
			"translation":[
				-6.01101675101745e-08,
				1.7382642030715942,
				-5.820766091346741e-11
			]
		},
		{
			"name":"Hatch.R",
			"rotation":[
				-0.0019978564232587814,
				0.0016684060683473945,
				-0.8931904435157776,
				0.44967103004455566
			],
			"scale":[
				1.0000003576278687,
				1.0000001192092896,
				0.9999999403953552
			],
			"translation":[
				0.9932492971420288,
				-0.058122631162405014,
				0.00048622916801832616
			]
		},
		{
			"children":[
				26,
				27
			],
			"name":"Shoulder.R",
			"rotation":[
				-0.9853330850601196,
				-0.17063727974891663,
				0.000219683104660362,
				0.0012688303831964731
			],
			"scale":[
				1.0000001192092896,
				0.9999999403953552,
				0.9999999403953552
			]
		},
		{
			"mesh":2,
			"name":"ArmsTest",
			"skin":2
		},
		{
			"children":[
				29,
				24,
				28
			],
			"name":"ARMS"
		},
		{
			"name":"Head",
			"rotation":[
				0,
				-1,
				0,
				7.549790126404332e-08
			]
		},
		{
			"mesh":3,
			"name":"HeadTest",
			"skin":3
		},
		{
			"children":[
				32,
				31
			],
			"name":"HEAD"
		}
	],
	"materials":[
		{
			"extensions":{
				"KHR_materials_specular":{
					"specularColorFactor":[
						2.0,
						2.0,
						2.0
					]
				}
			},
			"name":"Green",
			"pbrMetallicRoughness":{
				"baseColorFactor":[
					0.02500000037252903,
					0.800000011920929,
					0.02500000037252903,
					1
				],
				"metallicFactor":0,
				"roughnessFactor":0.30000001192092896
			}
		},
		{
			"extensions":{
				"KHR_materials_specular":{
					"specularColorFactor":[
						2.0,
						2.0,
						2.0
					]
				}
			},
			"name":"Red",
			"pbrMetallicRoughness":{
				"baseColorFactor":[
					0.800000011920929,
					0,
					0,
					1
				],
				"metallicFactor":0,
				"roughnessFactor":0.30000001192092896
			}
		},
		{
			"extensions":{
				"KHR_materials_specular":{
					"specularColorFactor":[
						2.0,
						2.0,
						2.0
					]
				}
			},
			"name":"Blue",
			"pbrMetallicRoughness":{
				"baseColorFactor":[
					0,
					0.10000000149011612,
					0.800000011920929,
					1
				],
				"metallicFactor":0,
				"roughnessFactor":0.30000001192092896
			}
		},
		{
			"extensions":{
				"KHR_materials_specular":{
					"specularColorFactor":[
						2.0,
						2.0,
						2.0
					]
				}
			},
			"name":"Yellow",
			"pbrMetallicRoughness":{
				"baseColorFactor":[
					0.800000011920929,
					0.6000000238418579,
					0,
					1
				],
				"metallicFactor":0,
				"roughnessFactor":0.30000001192092896
			}
		}
	],
	"meshes":[
		{
			"name":"TorsoDroneTest",
			"primitives":[
				{
					"attributes":{
						"POSITION":0,
						"NORMAL":1,
						"JOINTS_0":2,
						"WEIGHTS_0":3
					},
					"indices":4,
					"material":0
				},
				{
					"attributes":{
						"POSITION":5,
						"NORMAL":6,
						"JOINTS_0":7,
						"WEIGHTS_0":8
					},
					"indices":9,
					"material":1
				}
			]
		},
		{
			"name":"LegsTest",
			"primitives":[
				{
					"attributes":{
						"POSITION":11,
						"NORMAL":12,
						"JOINTS_0":13,
						"WEIGHTS_0":14
					},
					"indices":15,
					"material":2
				}
			]
		},
		{
			"name":"ArmsTest",
			"primitives":[
				{
					"attributes":{
						"POSITION":17,
						"NORMAL":18,
						"JOINTS_0":19,
						"WEIGHTS_0":20
					},
					"indices":21,
					"material":3
				}
			]
		},
		{
			"name":"HeadTest",
			"primitives":[
				{
					"attributes":{
						"POSITION":23,
						"NORMAL":24,
						"JOINTS_0":25,
						"WEIGHTS_0":26
					},
					"indices":27,
					"material":1
				}
			]
		}
	],
	"skins":[
		{
			"inverseBindMatrices":10,
			"joints":[
				7,
				0,
				1,
				2,
				3,
				4,
				5,
				6
			],
			"name":"TORSO"
		},
		{
			"inverseBindMatrices":16,
			"joints":[
				18,
				17,
				12,
				11,
				10,
				15,
				14,
				13,
				16
			],
			"name":"LEGS"
		},
		{
			"inverseBindMatrices":22,
			"joints":[
				24,
				22,
				21,
				23,
				28,
				26,
				25,
				27
			],
			"name":"ARMS"
		},
		{
			"inverseBindMatrices":28,
			"joints":[
				31
			],
			"name":"HEAD"
		}
	],
	"accessors":[
		{
			"bufferView":0,
			"componentType":5126,
			"count":509,
			"max":[
				1.8299325704574585,
				1.9056326150894165,
				2.6425161361694336
			],
			"min":[
				-1.8299325704574585,
				-0.13103830814361572,
				-2.915989875793457
			],
			"type":"VEC3"
		},
		{
			"bufferView":1,
			"componentType":5126,
			"count":509,
			"type":"VEC3"
		},
		{
			"bufferView":2,
			"componentType":5121,
			"count":509,
			"type":"VEC4"
		},
		{
			"bufferView":3,
			"componentType":5126,
			"count":509,
			"type":"VEC4"
		},
		{
			"bufferView":4,
			"componentType":5123,
			"count":1074,
			"type":"SCALAR"
		},
		{
			"bufferView":5,
			"componentType":5126,
			"count":178,
			"max":[
				1.534391164779663,
				2.3477792739868164,
				2.8584940433502197
			],
			"min":[
				-1.534391164779663,
				1.621103048324585,
				0.46001923084259033
			],
			"type":"VEC3"
		},
		{
			"bufferView":6,
			"componentType":5126,
			"count":178,
			"type":"VEC3"
		},
		{
			"bufferView":7,
			"componentType":5121,
			"count":178,
			"type":"VEC4"
		},
		{
			"bufferView":8,
			"componentType":5126,
			"count":178,
			"type":"VEC4"
		},
		{
			"bufferView":9,
			"componentType":5123,
			"count":282,
			"type":"SCALAR"
		},
		{
			"bufferView":10,
			"componentType":5126,
			"count":8,
			"type":"MAT4"
		},
		{
			"bufferView":11,
			"componentType":5126,
			"count":1391,
			"max":[
				1.790849208831787,
				7.344045639038086,
				1.9358501434326172
			],
			"min":[
				-1.790849208831787,
				0,
				-2.0750229358673096
			],
			"type":"VEC3"
		},
		{
			"bufferView":12,
			"componentType":5126,
			"count":1391,
			"type":"VEC3"
		},
		{
			"bufferView":13,
			"componentType":5121,
			"count":1391,
			"type":"VEC4"
		},
		{
			"bufferView":14,
			"componentType":5126,
			"count":1391,
			"type":"VEC4"
		},
		{
			"bufferView":15,
			"componentType":5123,
			"count":2901,
			"type":"SCALAR"
		},
		{
			"bufferView":16,
			"componentType":5126,
			"count":9,
			"type":"MAT4"
		},
		{
			"bufferView":17,
			"componentType":5126,
			"count":1196,
			"max":[
				1.5489712953567505,
				0.782508134841919,
				1.1726740598678589
			],
			"min":[
				-1.681027889251709,
				-2.490135669708252,
				-2.931816577911377
			],
			"type":"VEC3"
		},
		{
			"bufferView":18,
			"componentType":5126,
			"count":1196,
			"type":"VEC3"
		},
		{
			"bufferView":19,
			"componentType":5121,
			"count":1196,
			"type":"VEC4"
		},
		{
			"bufferView":20,
			"componentType":5126,
			"count":1196,
			"type":"VEC4"
		},
		{
			"bufferView":21,
			"componentType":5123,
			"count":2352,
			"type":"SCALAR"
		},
		{
			"bufferView":22,
			"componentType":5126,
			"count":8,
			"type":"MAT4"
		},
		{
			"bufferView":23,
			"componentType":5126,
			"count":238,
			"max":[
				0.45748308300971985,
				1.5624901056289673,
				0.8029894828796387
			],
			"min":[
				-0.45748308300971985,
				9.085237979888916e-05,
				-0.6024666428565979
			],
			"type":"VEC3"
		},
		{
			"bufferView":24,
			"componentType":5126,
			"count":238,
			"type":"VEC3"
		},
		{
			"bufferView":25,
			"componentType":5121,
			"count":238,
			"type":"VEC4"
		},
		{
			"bufferView":26,
			"componentType":5126,
			"count":238,
			"type":"VEC4"
		},
		{
			"bufferView":27,
			"componentType":5123,
			"count":438,
			"type":"SCALAR"
		},
		{
			"bufferView":28,
			"componentType":5126,
			"count":1,
			"type":"MAT4"
		}
	],
	"bufferViews":[
		{
			"buffer":0,
			"byteLength":6108,
			"byteOffset":0,
			"target":34962
		},
		{
			"buffer":0,
			"byteLength":6108,
			"byteOffset":6108,
			"target":34962
		},
		{
			"buffer":0,
			"byteLength":2036,
			"byteOffset":12216,
			"target":34962
		},
		{
			"buffer":0,
			"byteLength":8144,
			"byteOffset":14252,
			"target":34962
		},
		{
			"buffer":0,
			"byteLength":2148,
			"byteOffset":22396,
			"target":34963
		},
		{
			"buffer":0,
			"byteLength":2136,
			"byteOffset":24544,
			"target":34962
		},
		{
			"buffer":0,
			"byteLength":2136,
			"byteOffset":26680,
			"target":34962
		},
		{
			"buffer":0,
			"byteLength":712,
			"byteOffset":28816,
			"target":34962
		},
		{
			"buffer":0,
			"byteLength":2848,
			"byteOffset":29528,
			"target":34962
		},
		{
			"buffer":0,
			"byteLength":564,
			"byteOffset":32376,
			"target":34963
		},
		{
			"buffer":0,
			"byteLength":512,
			"byteOffset":32940
		},
		{
			"buffer":0,
			"byteLength":16692,
			"byteOffset":33452,
			"target":34962
		},
		{
			"buffer":0,
			"byteLength":16692,
			"byteOffset":50144,
			"target":34962
		},
		{
			"buffer":0,
			"byteLength":5564,
			"byteOffset":66836,
			"target":34962
		},
		{
			"buffer":0,
			"byteLength":22256,
			"byteOffset":72400,
			"target":34962
		},
		{
			"buffer":0,
			"byteLength":5802,
			"byteOffset":94656,
			"target":34963
		},
		{
			"buffer":0,
			"byteLength":576,
			"byteOffset":100460
		},
		{
			"buffer":0,
			"byteLength":14352,
			"byteOffset":101036,
			"target":34962
		},
		{
			"buffer":0,
			"byteLength":14352,
			"byteOffset":115388,
			"target":34962
		},
		{
			"buffer":0,
			"byteLength":4784,
			"byteOffset":129740,
			"target":34962
		},
		{
			"buffer":0,
			"byteLength":19136,
			"byteOffset":134524,
			"target":34962
		},
		{
			"buffer":0,
			"byteLength":4704,
			"byteOffset":153660,
			"target":34963
		},
		{
			"buffer":0,
			"byteLength":512,
			"byteOffset":158364
		},
		{
			"buffer":0,
			"byteLength":2856,
			"byteOffset":158876,
			"target":34962
		},
		{
			"buffer":0,
			"byteLength":2856,
			"byteOffset":161732,
			"target":34962
		},
		{
			"buffer":0,
			"byteLength":952,
			"byteOffset":164588,
			"target":34962
		},
		{
			"buffer":0,
			"byteLength":3808,
			"byteOffset":165540,
			"target":34962
		},
		{
			"buffer":0,
			"byteLength":876,
			"byteOffset":169348,
			"target":34963
		},
		{
			"buffer":0,
			"byteLength":64,
			"byteOffset":170224
		}
	],
	"buffers":[
		{
			"byteLength":170288,
			"uri":"TestParts.bin"
		}
	]
}
